<svg xmlns="http://www.w3.org/2000/svg" width="1568" height="1656"><path d="M0 828v828h26.878c29.271 0 27.006.356 41.961-6.591 4.037-1.875 7.511-3.409 7.72-3.409.21 0 2.758-1.072 5.661-2.382 18.262-8.241 47.201-19.075 69.28-25.937 7.718-2.399 40.056-10.405 49-12.131 16.54-3.192 19.328-4.076 32.463-10.292 15.71-7.436 26.569-12.258 27.605-12.258.403 0 4.152-2.178 8.332-4.84 11.42-7.273 19.767-10.817 32.284-13.71 6.224-1.439 12.097-3.028 13.052-3.533.955-.504 2.273-.917 2.928-.917.655 0 5.274-2.075 10.264-4.611 4.989-2.537 11.322-5.475 14.072-6.531 2.75-1.055 6.8-2.784 9-3.841 6.336-3.045 11.605-5.017 13.405-5.017 1.277 0 2.42-2.825 4.956-12.25 1.812-6.737 3.453-13.15 3.646-14.25.192-1.1 1.038-3.8 1.878-6 .84-2.2 1.547-4.786 1.571-5.746.042-1.683 3.285-12.139 5.04-16.254.469-1.1 1.064-3.125 1.322-4.5 1.052-5.604 5.771-19.385 9.68-28.261 3.532-8.024 4.677-9.69 7.613-11.091 4.39-2.093 4.684-2.068 3.424.286-1.531 2.861-1.274 4.965.346 2.832.724-.954 1.61-1.442 1.968-1.084.358.358.651-.324.651-1.515 0-1.192.498-2.167 1.107-2.167.664 0 .817.7.381 1.75-.399.963-.748 2.313-.774 3-.026.688-.545 1.25-1.153 1.25-.609 0-1.836 1.463-2.728 3.25-4.548 9.116-5.589 12.735-6.246 21.724-.381 5.21-1.052 9.71-1.491 10-1.197.789-1.94 5.911-.907 6.256.495.165.936 3.893.982 8.285.046 4.392.547 8.567 1.114 9.277.715.898.676 1.647-.127 2.45-1.68 1.68-1.419 3.758.473 3.758 1.31 0 1.517.699 1.054 3.552-.4 2.469-.169 3.709.759 4.065.768.294 1.115 1.354.817 2.493-.319 1.218.206 2.566 1.36 3.499 1.276 1.029 1.496 1.678.685 2.018-1.367.575-.61 3.174 1.567 5.373 1.313 1.327 1.291 1.537-.194 1.823-.924.178-1.679 1.014-1.679 1.859 0 1.128.647 1.372 2.439.923 3.249-.816 3.592.045 2.29 5.738-.903 3.944-.845 4.967.322 5.688 2.081 1.287-2.394 5.312-4.99 4.488-1.041-.33-2.179-.137-2.529.429-.378.612-.007.788.916.434 1.011-.388 1.552-.029 1.552 1.03 0 1.235-.601 1.475-2.5.999-2.304-.579-2.5-.358-2.5 2.814 0 4.362.736 5.073 3.354 3.24 2.443-1.711 3.646-1.865 3.646-.465 0 .55-.788 1.007-1.75 1.015-1.496.013-1.532.157-.25.985 1.21.782 1.061.972-.774.985-1.982.013-2.226.443-1.905 3.36.444 4.028 1.472 5.901 2.792 5.085.536-.331 1.61-.075 2.387.57.777.645 1.882.882 2.456.527.614-.379 1.044.34 1.044 1.747 0 1.46.585 2.393 1.5 2.393 1.812 0 2.008-2.319.25-2.947-.687-.245-.966-.754-.619-1.131.347-.376 1.359.044 2.25.935.89.89 1.619 1.137 1.619.547 0-1.625 2.706-1.28 3.362.429.316.825 1.039 1.5 1.607 1.5 1.942 0 5.031 3.999 5.031 6.514 0 2.224-.334 2.456-2.895 2.005-2-.353-3.072-.048-3.468.985-.316.823-1.376 1.444-2.356 1.38-1.509-.098-1.532-.182-.151-.55 1.427-.38 1.369-.726-.468-2.789l-2.098-2.355-1.469 3.033-1.469 3.033-1.882-2.324c-1.454-1.796-2.07-2.023-2.702-1-.45.728-1.319 1.015-1.93.637-.681-.421-1.112.126-1.112 1.411 0 1.686-.258 1.858-1.31.875-.72-.672-1.282-2.107-1.25-3.188.033-1.08-.542-2.173-1.277-2.428-.938-.325-1.28.391-1.144 2.399.312 4.633.105 4.828-2.519 2.362-1.375-1.292-2.5-1.858-2.5-1.258 0 .6.367 1.241.815 1.425.448.183.493 1.458.099 2.833-.68 2.378-.719 2.39-.814.25-.104-2.35-1.519-2.999-2.627-1.206-.355.574-.101 1.699.563 2.5.949 1.143.939 1.456-.044 1.456-.873 0-1.082 1.058-.689 3.482.645 3.974-.384 5.109-3.098 3.414-4.668-2.916-10.355 2.888-8.279 8.449.443 1.185.447 3.055.01 4.155-.627 1.576-.81 1.647-.866.333-.038-.916-.632-1.893-1.32-2.171-1-.403-1-.52 0-.583.688-.043 1.25-.754 1.25-1.579 0-1.76-1.157-1.943-2.677-.423-.976.976-.843 2.436.803 8.886.206.805-.639 1.924-1.876 2.488-1.723.783-2.25 1.861-2.25 4.598 0 2.214-.776 4.406-2.039 5.762-1.121 1.204-1.684 2.189-1.25 2.189.434 0 .769 2.362.745 5.25-.059 7.098.443 8.75 2.661 8.75 2.565 0 2.372 1.458-.367 2.78-1.237.596-1.661 1.115-.941 1.152.72.038 1.026.525.681 1.084-.346.559-1.047.758-1.559.441-.512-.316-.931-.098-.931.484s-.675 1.059-1.5 1.059-1.5.675-1.5 1.501c0 1.333 67.38 1.473 602.75 1.25l602.75-.251.052-828c.028-455.4-.106-824.636-.299-820.525-.225 4.806-.883 8.064-1.845 9.126-1.331 1.471-1.313 1.722.161 2.287 1.361.522 1.431.907.393 2.158-1.022 1.232-.996 2.024.137 4.152 1.097 2.058 1.129 2.72.151 3.049-.688.231-1.25 1.084-1.25 1.895 0 .812.354 1.258.786.99.432-.267.785.355.785 1.381s-.746 2.061-1.659 2.3c-1.292.338-1.61-.195-1.436-2.406.123-1.562.725-3.444 1.337-4.182.848-1.022.642-1.747-.861-3.034-1.086-.93-2.45-1.691-3.031-1.691-.601 0-.782-.862-.421-2 .682-2.148-.996-2.832-1.841-.75-.396.977-.711.959-1.444-.085-.722-1.027-1.096-.797-1.627 1l-.69 2.335-.911-2.233c-.589-1.445-1.454-2.025-2.449-1.643-1.914.734-2.035 3.376-.155 3.376.761 0 1.619.9 1.907 2 .287 1.1.115 2-.384 2-1.829 0-.839 1.784 1.3 2.344 1.214.317 1.982.802 1.707 1.077-.275.275-1.493.24-2.707-.077-1.638-.429-2.206-1.327-2.206-3.492 0-1.603-.63-3.157-1.4-3.452-1.57-.602-1.956-7.237-.523-8.982.594-.723.149-1.027-1.344-.917-1.82.134-2.224.754-2.185 3.348.055 3.667-1.878 3.726-2.383.073-.184-1.332-.721-2.824-1.194-3.316-.485-.505-.625 0-.322 1.159.376 1.437-.016 2.195-1.306 2.528-1.653.426-1.663.487-.093.591 2.419.16 2.217 1.794-.209 1.695-1.078-.043-1.959.371-1.959.921s.864.966 1.919.925c1.056-.041 2.157.544 2.448 1.302.33.862.095 1.109-.63.661-.765-.472-.95-.172-.545.883.337.88.076 1.818-.58 2.085-.875.356-.855.507.075.565.866.054 1.058.92.604 2.728-.468 1.865-.325 2.44.481 1.941 1.062-.656 1.622.655 1.208 2.829-.096.506.485.372 1.293-.298 1.065-.884 1.656-.912 2.157-.101.38.614 1.32.875 2.089.58.77-.296 1.399-.132 1.399.364s-.933 1.197-2.072 1.559c-1.246.395-1.857 1.22-1.532 2.067.52 1.355-.487 1.83-3.146 1.485-.687-.09-1.25.307-1.25.881 0 .574.75 1.044 1.667 1.044 2.19 0 1.189.95-1.558 1.479-1.19.229-1.923.028-1.629-.446.293-.474.085-1.013-.461-1.198-.599-.202-.427-1.427.434-3.085 1.315-2.532 1.279-2.75-.453-2.75-1.035 0-2.16.45-2.5 1-.915 1.481-2.5 1.212-2.5-.425 0-1.044-1-1.327-3.75-1.058-2.062.201-3.187.13-2.5-.159.687-.288 1.25-1.162 1.25-1.941 0-1.617 2.569-1.923 3.5-.417.965 1.561 4.496 1.173 5.164-.567.331-.863.021-2.652-.688-3.977l-1.289-2.41-2.296 2.477c-2.716 2.93-2.76 2.937-5.926.862-1.963-1.286-2.468-1.337-2.48-.25-.013 1.147-.153 1.148-.875.008-.597-.941-1.068-1.019-1.541-.254-.389.628.43 1.609 1.901 2.279 3.075 1.402 2.791 3.47-.413 3.002-1.42-.207-2.797.441-3.714 1.75-1.775 2.535-3.538 2.72-3.137.33.195-1.161-.8-2.231-2.956-3.18-3.609-1.589-4.264-3.07-1.357-3.07 1.967 0 3.53-2.506 2.551-4.09-.309-.501-1.435-.91-2.503-.91-1.274 0-1.941-.687-1.941-2 0-2.07 2.413-2.76 3.5-1 .34.55 1.154.986 1.809.97.655-.017.394-.495-.58-1.062-.974-.567-1.51-1.453-1.191-1.969.319-.517.103-.939-.479-.939s-1.059-.436-1.059-.969c0-.532.675-.709 1.5-.393 1.11.426 1.518-.168 1.57-2.281.059-2.374.199-2.528.832-.911.715 1.826.8 1.802 1.372-.386.439-1.677-.007-2.848-1.582-4.163-1.206-1.007-1.629-1.845-.942-1.864 2.164-.057 1.354-2.033-.833-2.033-1.236 0-1.904-.509-1.643-1.25.243-.688 1.209-1.183 2.148-1.1 1.603.14 1.602.034-.013-1.75C1515.723.037 1501.065 0 757.845 0H0v828M1560.667.667c-.367.366-.667 1.131-.667 1.7 0 .626.466.567 1.183-.15.651-.651.951-1.416.667-1.7-.284-.284-.817-.217-1.183.15M.498 828.5c0 455.4.113 641.85.252 414.332.139-227.517.139-600.117 0-828C.611 186.95.498 373.1.498 828.5M1521 2c0 .55.477 1 1.059 1s.781-.45.441-1-.816-1-1.059-1-.441.45-.441 1m5 .969c0 .532.675.709 1.5.393.825-.317 1.5-.753 1.5-.969 0-.216-.675-.393-1.5-.393s-1.5.436-1.5.969M1543 3c0 1.264 2.043 1.264 4 0 1.169-.755.893-.973-1.25-.985-1.513-.008-2.75.435-2.75.985m10.41 2.5c-.048 1.925.289 3.5.751 3.5.461 0 .839-1.575.839-3.5s-.338-3.5-.751-3.5c-.412 0-.79 1.575-.839 3.5M1520 4.878c0 .482.635 1.404 1.411 2.048 1.567 1.301 3.17-.177 2.089-1.926-.762-1.232-3.5-1.328-3.5-.122m-6.985 1.872c-.008 1.238.435 2.25.985 2.25 1.253 0 1.253-1.061 0-3-.784-1.213-.972-1.069-.985.75M1548 7.927c0 .59.638 1.073 1.417 1.073s1.671.563 1.982 1.25c.311.688.456.355.322-.739-.25-2.039-3.721-3.518-3.721-1.584m-28.187 1.756c.721.289 1.584.253 1.916-.079.332-.332-.258-.568-1.312-.525-1.165.048-1.402.285-.604.604m22.79.15c-.283.459.14.834.941.834.801 0 1.456-.375 1.456-.834 0-.458-.423-.833-.941-.833s-1.173.375-1.456.833M1533 11c-2.01.644-2.108.806-.5.83 1.1.016 2.9-.357 4-.83 2.548-1.095-.081-1.095-3.5 0m-11.504 2.007c-.755 1.221 1.988 2.43 3.456 1.523.576-.357 1.048-1.071 1.048-1.589 0-1.261-3.718-1.207-4.504.066m5.504 1.21c0 1.439-.562 2.843-1.25 3.121-.773.312-.608.534.433.583 2.048.096 3.441-3.697 1.916-5.222-.799-.799-1.099-.384-1.099 1.518m33.51.799c.346.559 1.047.758 1.559.441 1.387-.857 1.129-1.457-.628-1.457-.857 0-1.276.457-.931 1.016m-40.093 8.118c-.294.476.13.866.942.866.813 0 2.189.273 3.059.607.87.334 1.582.161 1.582-.383 0-1.278-4.878-2.23-5.583-1.09m36.25 2.533c-.367.366-.667 1.131-.667 1.7 0 .626.466.567 1.183-.15.651-.651.951-1.416.667-1.7-.284-.284-.817-.217-1.183.15m4.907 1c-.352.917-.231 2.076.268 2.575.544.544.908-.125.908-1.667 0-2.998-.288-3.22-1.176-.908M1519 27.5c0 .825.48 1.5 1.067 1.5.633 0 .794.864.395 2.118-.486 1.532-.297 1.994.683 1.667.745-.248 1.4-1.877 1.455-3.618.077-2.451-.318-3.167-1.75-3.167-1.018 0-1.85.675-1.85 1.5m26.5-.5c.34.55.816 1 1.059 1s.441-.45.441-1-.477-1-1.059-1-.781.45-.441 1m13.225 2.273c-.297.775-.194 1.968.228 2.652.567.917.945.783 1.441-.508.369-.963.267-2.156-.228-2.651-.534-.534-1.121-.327-1.441.507M1536 30.441c0 .857.45 1.559 1 1.559s1-.423 1-.941-.45-1.219-1-1.559c-.55-.34-1 .084-1 .941m19 4.618c0 1.682.394 2.816.875 2.518.481-.297.875-1.674.875-3.059 0-1.385-.394-2.518-.875-2.518s-.875 1.377-.875 3.059m-28.344 2.486c.304.794.956 1.195 1.449.89 1.24-.766 1.126-1.132-.554-1.777-.967-.371-1.265-.076-.895.887m-11.927.059c-.401.401-.729 1.419-.729 2.263 0 1.125.296 1.237 1.112.42.612-.611.941-1.63.73-2.262-.211-.633-.712-.822-1.113-.421m48.854.262c-.431.697-.513 1.537-.183 1.867.895.895 1.871-.421 1.387-1.871-.338-1.016-.574-1.016-1.204.004m-14.04 1.065c-.317.512-.118 1.213.441 1.559.559.345 1.016-.074 1.016-.931 0-1.757-.6-2.015-1.457-.628M1521 40.5c-1.053 1.268-.84 1.5 1.378 1.5 1.664 0 2.622-.548 2.622-1.5 0-.825-.62-1.5-1.378-1.5-.757 0-1.937.675-2.622 1.5m7 1.833c0 .805 1.151 1.334 2.905 1.334 2.42 0 2.682-.223 1.571-1.334-.733-.733-2.04-1.333-2.905-1.333-.864 0-1.571.6-1.571 1.333m-9.884 1.25c-.064 1.146.18 2.38.542 2.742.794.794 3.342-1.165 3.342-2.57 0-.584-.589-.511-1.416.176-1.125.933-1.513.803-1.884-.628-.396-1.526-.486-1.484-.584.28M1547 45.5c0 3.258 1.456 3.257 1.644-.001.08-1.374-.258-2.499-.75-2.499s-.894 1.125-.894 2.5m-20.789 2.101c-.71.769-.849 1.399-.309 1.399 1.038 0 2.541-1.902 1.948-2.466-.192-.183-.93.297-1.639 1.067M1534 47.5c0 .825.402 1.5.893 1.5s1.152-.675 1.469-1.5c.35-.914.001-1.5-.893-1.5-.808 0-1.469.675-1.469 1.5m7.158.5c0 1.375.227 1.938.504 1.25.278-.687.278-1.812 0-2.5-.277-.687-.504-.125-.504 1.25m3 0c0 1.375.227 1.938.504 1.25.278-.687.278-1.812 0-2.5-.277-.687-.504-.125-.504 1.25M1528 50c0 .55.45 1 1 1s1-.45 1-1-.45-1-1-1-1 .45-1 1m18.5 0c-.34.55.11 1 1 1s1.34-.45 1-1c-.34-.55-.79-1-1-1-.21 0-.66.45-1 1m-7.767 1.124c.679.684 1.486.991 1.793.683.308-.308-.247-.867-1.233-1.243-1.425-.542-1.54-.428-.56.56M1542 55c-.901.582-1.025.975-.309.985.655.008 1.469-.435 1.809-.985.767-1.242.421-1.242-1.5 0m-7.808 4.075c.197.591.785 1.075 1.308 1.075s1.111-.484 1.308-1.075c.197-.591-.391-1.075-1.308-1.075s-1.505.484-1.308 1.075M1561.5 64c-.34.55-.141 1 .441 1s1.059-.45 1.059-1-.198-1-.441-1-.719.45-1.059 1M1528 76c0 .55.45 1 1 1s1-.45 1-1-.45-1-1-1-1 .45-1 1m-224.5 89c.34.55 1.041 1 1.559 1s.941-.45.941-1-.702-1-1.559-1-1.281.45-.941 1m11.658 9c0 1.375.227 1.938.504 1.25.278-.687.278-1.812 0-2.5-.277-.687-.504-.125-.504 1.25M407 1431.5c0 .825.45 1.5 1 1.5s1-.675 1-1.5-.45-1.5-1-1.5-1 .675-1 1.5m-6.564 3.602c-2.958 4.685-2.766 5.461.935 3.775 2.87-1.308 3.32-2.385 1.379-3.3-.687-.324-.012-.353 1.5-.064 3.272.625 3.415.152.758-2.505-1.99-1.99-1.996-1.987-4.572 2.094M393 1543.5c0 .825.45 1.5 1 1.5s1-.675 1-1.5-.45-1.5-1-1.5-1 .675-1 1.5m-3.817 4.717c-1.43 1.43-1.572 4.783-.202 4.783 1.02 0 2.589-4.763 1.822-5.53-.24-.24-.969.096-1.62.747m2.21 4.365c.334.87.607 2.085.607 2.7 0 .815.306.812 1.133-.015 1.309-1.309.472-4.267-1.209-4.267-.627 0-.865.71-.531 1.582M384 1568c0 .55-.627 1-1.393 1-1.664 0-2.762 2.434-1.997 4.427.409 1.066-.021 1.278-1.7.839-1.908-.499-2.129-.299-1.46 1.323.434 1.051.81 2.467.836 3.147.056 1.467 3.262 2.662 4.721 1.759.564-.348.767-1.052.45-1.564-.316-.512-.19-.931.28-.931.47 0 .9-2.475.956-5.5.056-3.025-.077-5.5-.296-5.5-.218 0-.397.45-.397 1m4 9.544c0 .116.675.771 1.5 1.456 1.217 1.01 1.5.97 1.5-.211 0-.801-.675-1.456-1.5-1.456s-1.5.095-1.5.211m4.46 1.758c-.515 2.053-1.156 2.296-5.933 2.25-5.847-.057-7.863.957-5.525 2.78.904.705 1.364 2.343 1.161 4.132l-.337 2.964 4.084-3.964c4.397-4.267 6.198-4.883 7.27-2.485.458 1.027.702.654.75-1.146.038-1.466.546-2.825 1.127-3.019 1.208-.402.184-3.814-1.145-3.814-.481 0-1.134 1.036-1.452 2.302m-15.822 7.198c.317.825 1.514 1.5 2.66 1.5 2.047 0 2.05-.026.143-1.468-2.511-1.9-3.524-1.911-2.803-.032m24.559 3.5c.21 2.762 1.803 4.426 1.803 1.883 0-.624.882-.886 2-.593 1.1.287 2 .115 2-.384 0-.498-.627-.906-1.393-.906s-1.652-.675-1.969-1.5c-1.01-2.633-2.678-1.609-2.441 1.5m17.299-.807c.234 3.173 2.504 3.527 2.504.39 0-1.485-.566-2.583-1.333-2.583-.754 0-1.263.952-1.171 2.193m5.754-1.531c-1.96.791-1.463 2.338.75 2.338 1.111 0 2-.667 2-1.5 0-1.541-.574-1.716-2.75-.838m-93.74 1.354c.346.559 1.047.758 1.559.441 1.387-.857 1.129-1.457-.628-1.457-.857 0-1.276.457-.931 1.016m78.076 2.484c.416 2.297.147 2.505-3.316 2.563-3.352.057-3.512.167-1.445.996 3.148 1.262 17.128 1.054 14.85-.221-.921-.516-1.675-1.563-1.675-2.329 0-2.249-1.887-2.765-3.653-.999-1.283 1.284-1.808 1.362-2.426.362-.434-.702-.567-1.635-.296-2.074.271-.439-.179-.798-1-.798-1.046 0-1.357.747-1.039 2.5m21.414-1.559c0 .518.445 1.216.989 1.552.566.35.734-.051.393-.941-.665-1.732-1.382-2.049-1.382-.611m-45.447 1.974a1.116 1.116 0 00.362 1.532c.521.322 1.21.159 1.532-.362a1.116 1.116 0 00-.362-1.532 1.116 1.116 0 00-1.532.362m10.447 5.179c0 2.104.133 2.176 2.418 1.299 2.174-.834 1.983-2.055-.418-2.683-1.483-.388-2-.03-2 1.384m5.605 2.076c.486.787.178.961-.941.531-.915-.351-1.664-.202-1.664.33 0 1.112 1.147 1.233 3.418.362 2.035-.781 2.051-2.393.023-2.393-.936 0-1.27.468-.836 1.17m6.145-.464c1.238.238 3.262.238 4.5 0 1.238-.239.225-.434-2.25-.434s-3.488.195-2.25.434m-.112 12.794c.317.825.964 1.5 1.438 1.5.473 0 .602-.675.286-1.5-.317-.825-.964-1.5-1.438-1.5-.473 0-.602.675-.286 1.5M362 1627c0 .55.477 1 1.059 1s.781-.45.441-1-.816-1-1.059-1-.441.45-.441 1m7 15.385c0 1.562 2.673 2.954 3.403 1.771.257-.415-.403-1.3-1.468-1.964-1.568-.98-1.935-.943-1.935.193m-6 1.615c0 .55.702 1 1.559 1s1.281-.45.941-1c-.34-.55-1.041-1-1.559-1s-.941.45-.941 1m-34.77 1.811c-3.433 1.649-3.693 2.864-.979 4.576 1.222.77 2.149.561 3.69-.834 4.054-3.668 2.268-6.133-2.711-3.742m32.849 1.772c.048 1.165.285 1.402.604.605.289-.722.253-1.585-.079-1.917-.332-.332-.568.258-.525 1.312M317 1650.981c-5.076 1.012-8 2.135-8 3.072 0 .451-1.462 1.002-3.25 1.224-1.788.221 2.517.475 9.566.563 12.885.161 16.684-.608 16.684-3.375 0-1.668-1.574-1.963-2.498-.469-.388.629-1.684.444-3.509-.5-3.067-1.585-3.497-1.61-8.993-.515" fill="undefined" fill-rule="evenodd"/></svg>